<?xml version="1.0" standalone="no"?>
<!DOCTYPE svg PUBLIC "-//W3C//DTD SVG 20010904//EN"
 "http://www.w3.org/TR/2001/REC-SVG-20010904/DTD/svg10.dtd">
<svg version="1.0" xmlns="http://www.w3.org/2000/svg"
 width="567.000000pt" height="580.000000pt" viewBox="0 0 567.000000 580.000000"
 preserveAspectRatio="xMidYMid meet">

<g transform="translate(0.000000,580.000000) scale(0.100000,-0.100000)"
fill="#000000" stroke="none">
<path d="M1935 5572 c-101 -33 -185 -150 -185 -257 0 -123 83 -238 195 -271
142 -41 283 27 342 163 23 54 21 157 -5 215 -28 65 -89 122 -156 147 -67 25
-123 26 -191 3z m199 -54 c193 -98 156 -388 -55 -438 -145 -35 -289 80 -289
230 0 62 21 114 63 158 77 81 184 100 281 50z"/>
<path d="M2010 5455 c0 -18 5 -25 20 -25 15 0 20 7 20 25 0 18 -5 25 -20 25
-15 0 -20 -7 -20 -25z"/>
<path d="M1993 5362 c21 -23 25 -190 5 -210 -9 -9 -1 -12 37 -12 46 0 47 1 32
18 -14 15 -17 40 -17 120 l0 102 -37 0 c-34 0 -35 -1 -20 -18z"/>
<path d="M2061 4744 c0 -11 3 -14 6 -6 3 7 2 16 -1 19 -3 4 -6 -2 -5 -13z"/>
<path d="M2742 4752 c-42 -13 -80 -59 -91 -113 -22 -103 -7 -209 30 -209 11 0
12 60 0 78 -10 16 7 92 20 92 5 0 6 -7 3 -15 -4 -8 -3 -23 1 -32 5 -15 9 -12
22 14 l15 32 39 -21 c51 -26 105 -19 137 18 26 30 27 82 2 94 -24 11 -45 24
-72 42 -29 21 -74 29 -106 20z"/>
<path d="M1450 3475 l0 -395 25 0 25 0 0 365 0 365 365 0 365 0 0 30 0 29
-390 1 -390 0 0 -395z"/>
<path d="M3390 3839 l0 -29 365 0 365 0 0 -365 0 -365 25 0 25 0 0 395 0 396
-390 -1 -390 -2 0 -29z"/>
<path d="M3151 3714 c0 -11 3 -14 6 -6 3 7 2 16 -1 19 -3 4 -6 -2 -5 -13z"/>
<path d="M2950 3670 l0 -50 -50 0 -50 0 0 45 0 45 -45 0 -45 0 0 -50 0 -50 45
0 45 0 0 -70 0 -70 -45 0 -45 0 0 -125 0 -125 89 0 88 0 7 77 c3 42 6 132 6
200 l0 123 50 0 50 0 0 -76 0 -75 38 73 39 73 -39 3 -38 3 0 50 0 49 -50 0
-50 0 0 -50z"/>
<path d="M1600 3335 l0 -374 103 -3 102 -3 0 -47 0 -48 48 0 47 0 0 50 0 50
55 0 55 0 0 -50 0 -50 50 0 50 0 0 -45 0 -45 -50 0 -50 0 0 -50 0 -50 50 0 50
0 0 -55 0 -55 -51 0 -50 0 3 -46 3 -47 45 -1 45 -1 5 50 5 50 48 0 47 0 0 53
0 52 50 0 50 0 0 50 0 50 -50 0 -50 0 0 95 0 95 70 0 70 0 0 130 0 130 50 0
50 0 0 50 0 50 50 0 50 0 0 -50 0 -50 50 0 50 0 0 50 0 50 -51 0 -50 0 3 53 3
52 48 -3 47 -4 0 51 0 51 -50 0 -50 0 0 45 0 45 50 0 50 0 0 50 0 50 -50 0
-50 0 0 -40 0 -40 -50 0 -50 0 0 -155 0 -155 -50 0 -50 0 0 195 0 195 -375 0
-375 0 0 -375z m650 0 l0 -275 -275 0 -275 0 0 275 0 275 275 0 275 0 0 -275z"/>
<path d="M1830 3335 l0 -145 145 0 145 0 0 145 0 145 -145 0 -145 0 0 -145z"/>
<path d="M3270 3340 l0 -370 -55 0 -55 0 0 35 0 35 -50 0 -50 0 0 -35 0 -35
-50 0 -50 0 0 -50 0 -50 50 0 50 0 0 -50 0 -50 -55 0 -55 0 0 50 0 50 -50 0
-50 0 0 -50 0 -50 -50 0 -50 0 0 -49 0 -50 53 -3 52 -3 0 -50 0 -50 48 3 c45
2 47 2 48 -25 1 -15 2 -39 2 -53 l2 -25 152 0 153 0 0 -47 0 -46 50 -4 50 -3
0 48 0 47 54 0 54 0 -1 50 0 50 -48 0 -48 0 -3 -47 -3 -48 -50 0 -50 0 -3 48
-3 47 -50 0 -49 0 0 155 0 155 50 0 50 0 0 45 0 45 155 0 155 0 0 -50 0 -50
-100 0 -100 0 0 -50 0 -50 50 0 50 0 0 -95 0 -95 50 0 50 0 0 145 0 145 50 0
50 0 0 -100 0 -100 50 0 50 0 0 -50 0 -50 125 0 125 0 0 151 0 150 -57 -1
c-99 -3 -93 -6 -93 50 l0 50 75 0 75 0 0 375 0 375 -375 0 -375 0 0 -370z
m650 -5 l0 -275 -275 0 -275 0 0 278 0 277 275 -3 275 -3 0 -274z m-150 -425
l0 -50 50 0 50 0 0 -50 c0 -47 2 -50 25 -50 23 0 25 -3 25 -50 l0 -50 -75 0
-75 0 0 100 0 100 -50 0 -50 0 0 50 0 50 50 0 50 0 0 -50z m-710 -296 l0 -55
-52 3 -53 3 -3 39 c-5 59 1 66 58 66 l50 0 0 -56z"/>
<path d="M3500 3335 l0 -145 145 0 145 0 0 145 0 145 -145 0 -145 0 0 -145z"/>
<path d="M3240 3691 c0 -4 -11 -24 -23 -43 l-24 -34 29 4 c25 4 28 8 28 43 0
22 -2 39 -5 39 -3 0 -5 -4 -5 -9z"/>
<path d="M3071 3455 l-20 -35 49 0 50 0 0 -50 0 -50 51 0 50 0 -3 48 -3 47
-47 3 c-45 3 -48 5 -48 31 0 21 -6 30 -22 35 -34 9 -34 9 -57 -29z"/>
<path d="M3050 3259 l0 -50 48 3 47 3 3 48 3 47 -50 0 -51 0 0 -51z"/>
<path d="M4937 3303 c-15 -15 -5 -43 21 -62 20 -14 32 -34 38 -62 11 -53 34
-64 34 -17 l0 33 20 -30 c11 -16 27 -54 35 -83 24 -81 71 -115 109 -77 12 12
14 35 10 117 -6 117 -14 133 -77 143 -23 4 -71 15 -106 26 -70 21 -75 22 -84
12z"/>
<path d="M4378 3163 c-15 -4 -18 -15 -17 -56 1 -29 5 -65 10 -82 6 -20 7 -6 4
46 l-5 77 38 5 c20 2 39 3 41 1 1 -1 7 -27 11 -56 5 -35 8 -43 9 -22 0 17 -2
46 -5 63 -6 27 -10 31 -38 30 -17 -1 -39 -3 -48 -6z"/>
<path d="M2455 3108 c-2 -7 -3 -29 -2 -48 2 -34 3 -35 50 -38 l47 -3 0 -175 0
-174 50 0 50 0 0 125 0 125 105 0 105 0 0 49 0 50 -52 3 -53 3 -3 48 -3 47
-45 0 -44 0 0 -50 0 -50 -55 0 -55 0 0 50 0 50 -45 0 c-28 0 -47 -5 -50 -12z"/>
<path d="M4470 3000 c0 -22 -3 -39 -7 -39 -23 4 -53 -2 -49 -9 3 -5 19 -7 36
-4 28 4 30 7 30 48 0 24 -2 44 -5 44 -3 0 -5 -18 -5 -40z"/>
<path d="M2360 2910 l0 -50 45 0 45 0 0 50 0 50 -45 0 -45 0 0 -50z"/>
<path d="M5010 2937 c-64 -15 -100 -33 -118 -59 -7 -10 -17 -18 -22 -18 -6 0
-18 -7 -27 -15 -85 -70 -157 -126 -170 -133 -13 -8 -13 -13 0 -43 24 -56 60
-83 104 -77 l38 5 -3 -126 c-2 -69 -7 -160 -12 -201 -10 -88 2 -114 66 -143
l39 -18 -2 -210 c-1 -116 -5 -214 -8 -219 -6 -10 0 -54 11 -71 4 -7 3 -9 -3
-6 -6 4 -13 0 -16 -7 -3 -8 -3 -16 1 -18 5 -2 29 -61 56 -133 26 -71 68 -178
93 -237 40 -96 48 -108 70 -108 18 0 23 4 19 18 -35 120 -38 451 -6 677 13 88
24 201 25 252 2 50 5 95 8 100 2 4 8 34 12 66 3 32 26 116 50 185 l43 127 42
7 c47 8 98 35 113 59 12 20 1 83 -18 102 -8 8 -12 17 -9 19 2 3 -7 20 -21 39
-13 19 -29 45 -35 59 -17 38 -49 68 -107 101 -63 36 -133 44 -213 26z m-84
-1269 c5 -7 3 -8 -6 -3 -10 6 -12 4 -7 -8 3 -9 2 -19 -2 -21 -6 -4 -8 30 -2
42 3 5 10 1 17 -10z"/>
<path d="M1600 2810 l0 -50 50 0 50 0 0 -50 0 -50 50 0 50 0 0 50 0 50 -50 0
-50 0 0 50 0 50 -50 0 -50 0 0 -50z"/>
<path d="M3260 2710 l0 -50 50 0 50 0 0 50 0 50 -50 0 -50 0 0 -50z"/>
<path d="M2360 2613 l0 -48 45 0 45 0 0 47 0 48 -45 0 -45 0 0 -47z"/>
<path d="M2650 2613 l0 -48 47 1 48 1 3 47 3 46 -50 0 -51 0 0 -47z"/>
<path d="M1600 2510 l0 -50 50 0 50 0 0 -45 c0 -42 2 -45 28 -46 15 -1 36 -2
47 -3 17 -1 21 7 25 49 3 30 10 51 18 51 6 1 28 2 47 3 35 1 35 1 35 46 l0 45
-50 0 -50 0 0 -50 0 -50 -50 0 -50 0 0 50 0 50 -50 0 -50 0 0 -50z"/>
<path d="M2750 2460 l0 -100 50 0 50 0 0 100 0 100 -50 0 -50 0 0 -100z"/>
<path d="M3670 2505 l0 -45 50 0 50 0 0 45 0 45 -50 0 -50 0 0 -45z"/>
<path d="M1600 2315 l0 -45 50 0 50 0 0 45 0 45 -50 0 -50 0 0 -45z"/>
<path d="M1900 2315 l0 -45 50 0 50 0 0 45 0 45 -50 0 -50 0 0 -45z"/>
<path d="M2240 2310 l0 -50 -55 0 -55 0 0 -50 0 -50 160 0 160 0 0 50 0 50
-55 0 -55 0 0 50 0 50 -50 0 -50 0 0 -50z"/>
<path d="M3050 2315 l0 -45 50 0 50 0 0 45 0 45 -50 0 -50 0 0 -45z"/>
<path d="M3370 2316 l0 -43 90 -7 c49 -4 94 -5 100 -1 5 3 10 26 10 51 l0 44
-100 0 -100 0 0 -44z"/>
<path d="M3672 2313 l3 -48 53 -3 53 -3 -3 -42 -3 -42 -52 -3 -53 -3 0 -50 0
-49 155 0 155 0 0 49 0 50 -52 3 -53 3 -3 47 -3 47 -47 3 -47 3 -3 43 -3 42
-50 0 -50 0 3 -47z"/>
<path d="M3264 2261 c-2 -2 -4 -24 -4 -48 l0 -43 50 0 50 0 0 48 0 47 -46 0
c-25 0 -48 -2 -50 -4z"/>
<path d="M1800 2211 l0 -50 52 -3 51 -3 1 -52 2 -53 -153 0 -153 0 0 -375 0
-375 375 0 375 0 0 225 0 225 50 0 50 0 0 50 0 50 -50 0 -50 0 0 100 0 100
-175 0 -175 0 0 55 0 55 -50 0 -50 0 0 50 0 50 -50 0 -50 0 0 -49z m450 -533
l0 -278 -275 0 -275 0 0 278 0 277 275 0 275 0 0 -277z"/>
<path d="M1830 1675 l0 -145 145 0 145 0 0 145 0 145 -145 0 -145 0 0 -145z"/>
<path d="M2540 2161 l0 -100 -42 -3 -43 -3 -3 -47 -3 -48 50 0 51 0 0 50 0 50
45 0 45 0 0 100 0 100 -50 0 -50 0 0 -99z"/>
<path d="M2750 2210 l0 -50 50 0 50 0 0 50 0 50 -50 0 -50 0 0 -50z"/>
<path d="M2950 2210 l0 -50 50 0 50 0 0 -50 0 -50 50 0 50 0 0 50 0 50 -50 0
-50 0 0 50 0 50 -50 0 -50 0 0 -50z"/>
<path d="M3160 2210 l0 -50 45 0 45 0 0 50 0 50 -45 0 -45 0 0 -50z"/>
<path d="M3370 2110 l0 -50 44 0 44 0 4 50 3 50 -47 0 -48 0 0 -50z"/>
<path d="M2750 2010 l0 -50 50 0 50 0 0 -55 0 -56 -97 3 -98 3 -3 48 -3 47
-45 0 -44 0 0 -99 0 -100 143 2 142 2 5 50 5 49 45 1 45 1 3 52 3 52 50 0 50
0 -3 48 -3 47 -147 3 -148 3 0 -51z"/>
<path d="M3520 1931 l0 -131 50 0 50 0 0 -50 0 -50 50 0 50 0 0 50 0 50 -50 0
-49 0 -3 128 -3 127 -47 3 -48 3 0 -130z"/>
<path d="M1450 1535 l0 -395 390 0 390 0 0 25 0 25 -365 0 -365 0 0 370 0 370
-25 0 -25 0 0 -395z"/>
<path d="M4120 1560 l0 -370 -365 0 -365 0 0 -25 0 -25 390 0 390 0 0 395 0
395 -25 0 -25 0 0 -370z"/>
<path d="M3115 1863 c3 -56 -2 -63 -51 -63 l-44 0 0 -50 0 -50 -50 0 -50 0 0
-50 0 -50 -85 0 -85 0 0 -50 0 -49 83 -3 82 -3 3 -47 3 -48 44 0 44 0 3 48 3
47 98 3 97 3 0 99 0 100 50 0 50 0 0 50 0 50 -50 0 -50 0 0 50 0 50 -49 0 -49
0 3 -37z m95 -113 l0 -50 -50 0 -50 0 0 50 0 50 50 0 50 0 0 -50z"/>
<path d="M3420 1751 l0 -51 48 0 47 0 -1 47 -1 48 -46 3 -47 3 0 -50z"/>
<path d="M3820 1750 l0 -50 100 0 100 0 0 50 0 50 -100 0 -100 0 0 -50z"/>
<path d="M3312 1643 l3 -48 53 -3 53 -3 -3 -47 -3 -47 -102 -3 -103 -3 0 -49
0 -50 -48 0 -49 0 1 -47 1 -48 47 -3 47 -3 3 53 3 53 103 3 102 3 0 49 0 50
45 0 c25 0 45 5 46 10 0 6 1 27 2 47 l0 38 -49 0 -49 0 -3 48 -3 47 -50 0 -50
0 3 -47z"/>
<path d="M2470 1445 l0 -145 50 0 50 0 0 145 0 145 -50 0 -50 0 0 -145z"/>
<path d="M3620 1545 c0 -25 3 -46 8 -46 11 -2 45 -2 70 -1 19 2 22 7 22 47 l0
45 -50 0 -50 0 0 -45z"/>
<path d="M3830 1540 l0 -50 -55 0 -55 0 0 -50 0 -50 -50 0 -50 0 0 50 0 50
-50 0 -50 0 0 -50 0 -50 49 0 50 0 3 -47 3 -48 48 -3 47 -3 0 50 0 51 100 0
100 0 0 -44 0 -44 46 -4 c25 -2 47 -1 50 1 2 2 4 69 4 148 l0 143 -95 0 -95 0
0 -50z"/>
<path d="M2660 1340 l0 -50 50 0 50 0 0 50 0 50 -50 0 -50 0 0 -50z"/>
</g>
</svg>
